<svg width="167" height="42" viewBox="0 0 167 42" fill="none" xmlns="http://www.w3.org/2000/svg">
<g clip-path="url(#clip0_41_168)">
<path d="M48.6309 29.2935H60.5829V25.6935H52.8789V12.1335H48.6309V29.2935Z" fill="#18A7B9"/>
<path d="M67.6638 26.8937C65.9598 26.8937 65.0718 25.4057 65.0718 23.1737C65.0718 20.9417 65.9598 19.4297 67.6638 19.4297C69.3678 19.4297 70.2798 20.9417 70.2798 23.1737C70.2798 25.4057 69.3678 26.8937 67.6638 26.8937ZM67.6878 29.6777C71.6478 29.6777 74.2398 26.8697 74.2398 23.1737C74.2398 19.4777 71.6478 16.6697 67.6878 16.6697C63.7518 16.6697 61.1118 19.4777 61.1118 23.1737C61.1118 26.8697 63.7518 29.6777 67.6878 29.6777Z" fill="#18A7B9"/>
<path d="M81.0941 33.5415C82.9181 33.5415 84.5261 33.1335 85.6061 32.1735C86.5901 31.2855 87.2381 29.9415 87.2381 28.0935V17.0055H83.4941V18.3255H83.4461C82.7261 17.2935 81.6221 16.6455 79.9901 16.6455C76.9421 16.6455 74.8301 19.1895 74.8301 22.7895C74.8301 26.5575 77.3981 28.6215 80.1581 28.6215C81.6461 28.6215 82.5821 28.0215 83.3021 27.2055H83.3981V28.4295C83.3981 29.9175 82.7021 30.7815 81.0461 30.7815C79.7501 30.7815 79.1021 30.2295 78.8861 29.5815H75.0941C75.4781 32.1495 77.7101 33.5415 81.0941 33.5415ZM81.0701 25.7175C79.6061 25.7175 78.6461 24.5175 78.6461 22.6695C78.6461 20.7975 79.6061 19.5975 81.0701 19.5975C82.7021 19.5975 83.5661 20.9895 83.5661 22.6455C83.5661 24.3735 82.7741 25.7175 81.0701 25.7175Z" fill="#18A7B9"/>
<path d="M94.9368 26.8937C93.2328 26.8937 92.3448 25.4057 92.3448 23.1737C92.3448 20.9417 93.2328 19.4297 94.9368 19.4297C96.6408 19.4297 97.5528 20.9417 97.5528 23.1737C97.5528 25.4057 96.6408 26.8937 94.9368 26.8937ZM94.9608 29.6777C98.9208 29.6777 101.513 26.8697 101.513 23.1737C101.513 19.4777 98.9208 16.6697 94.9608 16.6697C91.0248 16.6697 88.3848 19.4777 88.3848 23.1737C88.3848 26.8697 91.0248 29.6777 94.9608 29.6777Z" fill="#18A7B9"/>
<path d="M102.655 29.2935H106.567V17.0055H102.655V29.2935ZM102.655 15.3015H106.567V12.1335H102.655V15.3015Z" fill="#18A7B9"/>
<path d="M108.264 33.3495H112.176V28.0215H112.224C112.992 29.0535 114.12 29.6775 115.704 29.6775C118.92 29.6775 121.056 27.1335 121.056 23.1495C121.056 19.4535 119.064 16.6455 115.8 16.6455C114.12 16.6455 112.92 17.3895 112.08 18.4935H112.008V17.0055H108.264V33.3495ZM114.696 26.6535C113.016 26.6535 112.056 25.2855 112.056 23.2935C112.056 21.3015 112.92 19.7895 114.624 19.7895C116.304 19.7895 117.096 21.1815 117.096 23.2935C117.096 25.3815 116.184 26.6535 114.696 26.6535Z" fill="#18A7B9"/>
<path d="M127.426 29.6775C130.642 29.6775 133.018 28.2855 133.018 25.5975C133.018 22.4535 130.474 21.9015 128.314 21.5415C126.754 21.2535 125.362 21.1335 125.362 20.2695C125.362 19.5015 126.106 19.1415 127.066 19.1415C128.146 19.1415 128.89 19.4775 129.034 20.5815H132.634C132.442 18.1575 130.57 16.6455 127.09 16.6455C124.186 16.6455 121.786 17.9895 121.786 20.5815C121.786 23.4615 124.066 24.0375 126.202 24.3975C127.834 24.6855 129.322 24.8055 129.322 25.9095C129.322 26.7015 128.578 27.1335 127.402 27.1335C126.106 27.1335 125.29 26.5335 125.146 25.3095H121.45C121.57 28.0215 123.826 29.6775 127.426 29.6775Z" fill="#18A7B9"/>
<path d="M138.331 29.6536C140.035 29.6536 141.115 28.9816 142.003 27.7816H142.075V29.2936H145.819V17.0056H141.907V23.8696C141.907 25.3336 141.091 26.3416 139.747 26.3416C138.499 26.3416 137.899 25.5976 137.899 24.2536V17.0056H134.011V25.0696C134.011 27.8056 135.499 29.6536 138.331 29.6536Z" fill="#18A7B9"/>
<path d="M147.521 29.2935H151.433V22.4055C151.433 20.9415 152.153 19.9095 153.377 19.9095C154.553 19.9095 155.105 20.6775 155.105 21.9975V29.2935H159.017V22.4055C159.017 20.9415 159.713 19.9095 160.961 19.9095C162.137 19.9095 162.689 20.6775 162.689 21.9975V29.2935H166.601V21.3015C166.601 18.5415 165.209 16.6455 162.425 16.6455C160.841 16.6455 159.521 17.3175 158.561 18.8055H158.513C157.889 17.4855 156.665 16.6455 155.057 16.6455C153.281 16.6455 152.105 17.4855 151.337 18.7575H151.265V17.0055H147.521V29.2935Z" fill="#18A7B9"/>
<path fill-rule="evenodd" clip-rule="evenodd" d="M8.65429 4.39157C7.22363 5.39193 5.92993 6.57468 4.80688 7.9061C9.39618 7.48003 15.2267 8.17575 21.9959 11.5604C29.2245 15.1746 35.0453 15.2968 39.0963 14.5154C38.7287 13.4025 38.2659 12.3329 37.7178 11.3161C33.0805 11.8052 27.1355 11.1578 20.2071 7.69368C15.8075 5.49388 11.9293 4.58771 8.65429 4.39157ZM35.0089 7.46035C31.3468 3.3687 26.0249 0.793701 20.1015 0.793701C18.362 0.793701 16.6742 1.01581 15.0652 1.43318C17.2444 2.02779 19.5594 2.89769 21.9959 4.11597C27.0685 6.65223 31.4479 7.46886 35.0089 7.46035ZM39.9624 18.4218C35.0684 19.3882 28.3103 19.1897 20.2071 15.1381C12.6315 11.3503 6.60199 11.398 2.53546 12.3017C2.32556 12.3483 2.1206 12.3973 1.92059 12.4483C1.38818 13.6062 0.963196 14.8238 0.658264 16.0882C0.983948 16.0012 1.32049 15.9185 1.66772 15.8413C6.60113 14.745 13.5716 14.7926 21.9959 19.0048C29.5716 22.7926 35.6011 22.7449 39.6677 21.8412C39.807 21.8103 39.9443 21.7783 40.0793 21.7453C40.0941 21.43 40.1015 21.1127 40.1015 20.7937C40.1015 19.9912 40.0543 19.1997 39.9624 18.4218ZM39.4263 25.966C34.5798 26.8133 28.0185 26.4881 20.2071 22.5825C12.6315 18.7947 6.60199 18.8424 2.53546 19.7461C1.63281 19.9466 0.820802 20.1909 0.104493 20.4488C0.10254 20.5635 0.101562 20.6785 0.101562 20.7937C0.101562 31.8394 9.05585 40.7937 20.1015 40.7937C29.3586 40.7937 37.1468 34.5046 39.4263 25.966Z" fill="#18A7B9"/>
</g>
<defs>
<clipPath id="clip0_41_168">
<rect width="167" height="41" fill="white" transform="translate(0 0.5)"/>
</clipPath>
</defs>
</svg>
