<svg width="170" height="42" viewBox="0 0 170 42" fill="none" xmlns="http://www.w3.org/2000/svg">
<g clip-path="url(#clip0_41_190)">
<path d="M51.8599 28.638H63.8119V25.038H56.1079V11.478H51.8599V28.638Z" fill="#18A7B9"/>
<path d="M70.8933 26.2379C69.1893 26.2379 68.3013 24.7499 68.3013 22.5179C68.3013 20.2859 69.1893 18.7739 70.8933 18.7739C72.5973 18.7739 73.5093 20.2859 73.5093 22.5179C73.5093 24.7499 72.5973 26.2379 70.8933 26.2379ZM70.9173 29.0219C74.8773 29.0219 77.4693 26.2139 77.4693 22.5179C77.4693 18.8219 74.8773 16.0139 70.9173 16.0139C66.9813 16.0139 64.3413 18.8219 64.3413 22.5179C64.3413 26.2139 66.9813 29.0219 70.9173 29.0219Z" fill="#18A7B9"/>
<path d="M84.3236 32.886C86.1476 32.886 87.7556 32.478 88.8356 31.518C89.8196 30.63 90.4676 29.286 90.4676 27.438V16.35H86.7236V17.67H86.6756C85.9556 16.638 84.8516 15.99 83.2196 15.99C80.1716 15.99 78.0596 18.534 78.0596 22.134C78.0596 25.902 80.6276 27.966 83.3876 27.966C84.8756 27.966 85.8116 27.366 86.5316 26.55H86.6276V27.774C86.6276 29.262 85.9316 30.126 84.2756 30.126C82.9796 30.126 82.3316 29.574 82.1156 28.926H78.3236C78.7076 31.494 80.9396 32.886 84.3236 32.886ZM84.2996 25.062C82.8356 25.062 81.8756 23.862 81.8756 22.014C81.8756 20.142 82.8356 18.942 84.2996 18.942C85.9316 18.942 86.7956 20.334 86.7956 21.99C86.7956 23.718 86.0036 25.062 84.2996 25.062Z" fill="#18A7B9"/>
<path d="M98.1658 26.2379C96.4618 26.2379 95.5738 24.7499 95.5738 22.5179C95.5738 20.2859 96.4618 18.7739 98.1658 18.7739C99.8698 18.7739 100.782 20.2859 100.782 22.5179C100.782 24.7499 99.8698 26.2379 98.1658 26.2379ZM98.1898 29.0219C102.15 29.0219 104.742 26.2139 104.742 22.5179C104.742 18.8219 102.15 16.0139 98.1898 16.0139C94.2538 16.0139 91.6138 18.8219 91.6138 22.5179C91.6138 26.2139 94.2538 29.0219 98.1898 29.0219Z" fill="#18A7B9"/>
<path d="M105.884 28.638H109.796V16.35H105.884V28.638ZM105.884 14.646H109.796V11.478H105.884V14.646Z" fill="#18A7B9"/>
<path d="M111.494 32.694H115.406V27.366H115.454C116.222 28.398 117.35 29.022 118.934 29.022C122.15 29.022 124.286 26.478 124.286 22.494C124.286 18.798 122.294 15.99 119.03 15.99C117.35 15.99 116.15 16.734 115.31 17.838H115.238V16.35H111.494V32.694ZM117.926 25.998C116.246 25.998 115.286 24.63 115.286 22.638C115.286 20.646 116.15 19.134 117.854 19.134C119.534 19.134 120.326 20.526 120.326 22.638C120.326 24.726 119.414 25.998 117.926 25.998Z" fill="#18A7B9"/>
<path d="M130.655 29.022C133.871 29.022 136.247 27.63 136.247 24.942C136.247 21.798 133.703 21.246 131.543 20.886C129.983 20.598 128.591 20.478 128.591 19.614C128.591 18.846 129.335 18.486 130.295 18.486C131.375 18.486 132.119 18.822 132.263 19.926H135.863C135.671 17.502 133.799 15.99 130.319 15.99C127.415 15.99 125.015 17.334 125.015 19.926C125.015 22.806 127.295 23.382 129.431 23.742C131.063 24.03 132.551 24.15 132.551 25.254C132.551 26.046 131.807 26.478 130.631 26.478C129.335 26.478 128.519 25.878 128.375 24.654H124.679C124.799 27.366 127.055 29.022 130.655 29.022Z" fill="#18A7B9"/>
<path d="M141.561 28.9981C143.265 28.9981 144.345 28.3261 145.233 27.1261H145.305V28.6381H149.049V16.3501H145.137V23.2141C145.137 24.6781 144.321 25.6861 142.977 25.6861C141.729 25.6861 141.129 24.9421 141.129 23.5981V16.3501H137.241V24.4141C137.241 27.1501 138.729 28.9981 141.561 28.9981Z" fill="#18A7B9"/>
<path d="M150.75 28.638H154.662V21.75C154.662 20.286 155.382 19.254 156.606 19.254C157.782 19.254 158.334 20.022 158.334 21.342V28.638H162.246V21.75C162.246 20.286 162.942 19.254 164.19 19.254C165.366 19.254 165.918 20.022 165.918 21.342V28.638H169.83V20.646C169.83 17.886 168.438 15.99 165.654 15.99C164.07 15.99 162.75 16.662 161.79 18.15H161.742C161.118 16.83 159.894 15.99 158.286 15.99C156.51 15.99 155.334 16.83 154.566 18.102H154.494V16.35H150.75V28.638Z" fill="#18A7B9"/>
<path fill-rule="evenodd" clip-rule="evenodd" d="M20.6841 40.6379C31.7298 40.6379 40.6841 31.6836 40.6841 20.6379C40.6841 9.59225 31.7298 0.637939 20.6841 0.637939C9.63837 0.637939 0.684082 9.59225 0.684082 20.6379C0.684082 31.6836 9.63837 40.6379 20.6841 40.6379ZM26.9234 9.95478C27.2271 8.87599 26.1802 8.23807 25.2241 8.91924L11.8772 18.4275C10.8403 19.1662 11.0034 20.6379 12.1222 20.6379H15.6368V20.6107H22.4866L16.9053 22.58L14.4448 31.3211C14.1411 32.3999 15.1879 33.0378 16.1441 32.3566L29.491 22.8484C30.5279 22.1097 30.3647 20.6379 29.246 20.6379H23.9162L26.9234 9.95478Z" fill="#18A7B9"/>
</g>
<defs>
<clipPath id="clip0_41_190">
<rect width="170" height="41" fill="white" transform="translate(0 0.5)"/>
</clipPath>
</defs>
</svg>
