<svg width="169" height="42" viewBox="0 0 169 42" fill="none" xmlns="http://www.w3.org/2000/svg">
<g clip-path="url(#clip0_41_217)">
<path d="M50.8599 29.3531H62.8119V25.7531H55.1079V12.1931H50.8599V29.3531Z" fill="#18A7B9"/>
<path d="M69.8933 26.9532C68.1893 26.9532 67.3013 25.4652 67.3013 23.2332C67.3013 21.0012 68.1893 19.4892 69.8933 19.4892C71.5973 19.4892 72.5093 21.0012 72.5093 23.2332C72.5093 25.4652 71.5973 26.9532 69.8933 26.9532ZM69.9173 29.7372C73.8773 29.7372 76.4693 26.9292 76.4693 23.2332C76.4693 19.5372 73.8773 16.7292 69.9173 16.7292C65.9813 16.7292 63.3413 19.5372 63.3413 23.2332C63.3413 26.9292 65.9813 29.7372 69.9173 29.7372Z" fill="#18A7B9"/>
<path d="M83.3236 33.6011C85.1476 33.6011 86.7556 33.1931 87.8356 32.2331C88.8196 31.3451 89.4676 30.0011 89.4676 28.1531V17.0651H85.7236V18.3851H85.6756C84.9556 17.3531 83.8516 16.7051 82.2196 16.7051C79.1716 16.7051 77.0596 19.2491 77.0596 22.8491C77.0596 26.6171 79.6276 28.6811 82.3876 28.6811C83.8756 28.6811 84.8116 28.0811 85.5316 27.2651H85.6276V28.4891C85.6276 29.9771 84.9316 30.8411 83.2756 30.8411C81.9796 30.8411 81.3316 30.2891 81.1156 29.6411H77.3236C77.7076 32.2091 79.9396 33.6011 83.3236 33.6011ZM83.2996 25.7771C81.8356 25.7771 80.8756 24.5771 80.8756 22.7291C80.8756 20.8571 81.8356 19.6571 83.2996 19.6571C84.9316 19.6571 85.7956 21.0491 85.7956 22.7051C85.7956 24.4331 85.0036 25.7771 83.2996 25.7771Z" fill="#18A7B9"/>
<path d="M97.1658 26.9532C95.4618 26.9532 94.5738 25.4652 94.5738 23.2332C94.5738 21.0012 95.4618 19.4892 97.1658 19.4892C98.8698 19.4892 99.7818 21.0012 99.7818 23.2332C99.7818 25.4652 98.8698 26.9532 97.1658 26.9532ZM97.1898 29.7372C101.15 29.7372 103.742 26.9292 103.742 23.2332C103.742 19.5372 101.15 16.7292 97.1898 16.7292C93.2538 16.7292 90.6138 19.5372 90.6138 23.2332C90.6138 26.9292 93.2538 29.7372 97.1898 29.7372Z" fill="#18A7B9"/>
<path d="M104.884 29.3531H108.796V17.0651H104.884V29.3531ZM104.884 15.3611H108.796V12.1931H104.884V15.3611Z" fill="#18A7B9"/>
<path d="M110.494 33.4091H114.406V28.0811H114.454C115.222 29.1131 116.35 29.7371 117.934 29.7371C121.15 29.7371 123.286 27.1931 123.286 23.2091C123.286 19.5131 121.294 16.7051 118.03 16.7051C116.35 16.7051 115.15 17.4491 114.31 18.5531H114.238V17.0651H110.494V33.4091ZM116.926 26.7131C115.246 26.7131 114.286 25.3451 114.286 23.3531C114.286 21.3611 115.15 19.8491 116.854 19.8491C118.534 19.8491 119.326 21.2411 119.326 23.3531C119.326 25.4411 118.414 26.7131 116.926 26.7131Z" fill="#18A7B9"/>
<path d="M129.655 29.7371C132.871 29.7371 135.247 28.3451 135.247 25.6571C135.247 22.5131 132.703 21.9611 130.543 21.6011C128.983 21.3131 127.591 21.1931 127.591 20.3291C127.591 19.5611 128.335 19.2011 129.295 19.2011C130.375 19.2011 131.119 19.5371 131.263 20.6411H134.863C134.671 18.2171 132.799 16.7051 129.319 16.7051C126.415 16.7051 124.015 18.0491 124.015 20.6411C124.015 23.5211 126.295 24.0971 128.431 24.4571C130.063 24.7451 131.551 24.8651 131.551 25.9691C131.551 26.7611 130.807 27.1931 129.631 27.1931C128.335 27.1931 127.519 26.5931 127.375 25.3691H123.679C123.799 28.0811 126.055 29.7371 129.655 29.7371Z" fill="#18A7B9"/>
<path d="M140.561 29.7132C142.265 29.7132 143.345 29.0412 144.233 27.8412H144.305V29.3532H148.049V17.0652H144.137V23.9292C144.137 25.3932 143.321 26.4012 141.977 26.4012C140.729 26.4012 140.129 25.6572 140.129 24.3132V17.0652H136.241V25.1292C136.241 27.8652 137.729 29.7132 140.561 29.7132Z" fill="#18A7B9"/>
<path d="M149.75 29.3531H153.662V22.4651C153.662 21.0011 154.382 19.9691 155.606 19.9691C156.782 19.9691 157.334 20.7371 157.334 22.0571V29.3531H161.246V22.4651C161.246 21.0011 161.942 19.9691 163.19 19.9691C164.366 19.9691 164.918 20.7371 164.918 22.0571V29.3531H168.83V21.3611C168.83 18.6011 167.438 16.7051 164.654 16.7051C163.07 16.7051 161.75 17.3771 160.79 18.8651H160.742C160.118 17.5451 158.894 16.7051 157.286 16.7051C155.51 16.7051 154.334 17.5451 153.566 18.8171H153.494V17.0651H149.75V29.3531Z" fill="#18A7B9"/>
<path fill-rule="evenodd" clip-rule="evenodd" d="M20.6843 0.961914C31.9461 0.961914 41.0756 10.0914 41.0756 21.3532C41.0756 32.6151 31.9461 41.7446 20.6843 41.7446C9.42246 41.7446 0.292969 32.6151 0.292969 21.3532C0.292969 10.0914 9.42246 0.961914 20.6843 0.961914ZM40.2929 21.3532C40.2929 10.5237 31.5138 1.74454 20.6843 1.74454C19.8107 1.74454 18.9506 1.80166 18.1072 1.91237C18.6521 1.86473 19.2035 1.84041 19.7607 1.84041C30.1089 1.84041 38.4978 10.2293 38.4978 20.5775C38.4978 30.9256 30.1089 39.3145 19.7607 39.3145C9.96378 39.3145 1.92296 31.7956 1.09413 22.2135C1.54438 32.6439 10.1429 40.9619 20.6843 40.9619C31.5138 40.9619 40.2929 32.1828 40.2929 21.3532ZM37.7151 20.5775C37.7151 10.6615 29.6767 2.62303 19.7607 2.62303C18.9556 2.62303 18.1628 2.67603 17.3857 2.77872C17.8642 2.73846 18.3483 2.71793 18.8372 2.71793C28.2718 2.71793 35.92 10.3662 35.92 19.8007C35.92 29.2353 28.2718 36.8835 18.8372 36.8835C9.9166 36.8835 2.59299 30.0458 1.82162 21.3256C2.21381 30.8946 10.0954 38.5319 19.7607 38.5319C29.6767 38.5319 37.7151 30.4934 37.7151 20.5775ZM18.8372 3.50056C27.8395 3.50056 35.1374 10.7984 35.1374 19.8007C35.1374 28.803 27.8395 36.1008 18.8372 36.1008C10.0435 36.1008 2.87614 29.1372 2.54879 20.4235C3.25554 28.2885 9.86483 34.4524 17.9138 34.4524C26.4341 34.4524 33.3413 27.5453 33.3413 19.0249C33.3413 10.5045 26.4341 3.59739 17.9138 3.59739C17.473 3.59739 17.0365 3.61588 16.6051 3.65211C17.3349 3.55218 18.08 3.50056 18.8372 3.50056ZM32.5586 19.0249C32.5586 10.9368 26.0019 4.38003 17.9138 4.38003C17.2304 4.38003 16.5579 4.42682 15.8995 4.5174C16.259 4.48926 16.6224 4.47493 16.9892 4.47493C24.596 4.47493 30.7625 10.6414 30.7625 18.2482C30.7625 25.8549 24.596 32.0214 16.9892 32.0214C9.82959 32.0214 3.94588 26.5585 3.27897 19.5736C3.5675 27.4075 10.0093 33.6698 17.9138 33.6698C26.0019 33.6698 32.5586 27.1131 32.5586 19.0249ZM16.9892 5.25756C24.1637 5.25756 29.9798 11.0737 29.9798 18.2482C29.9798 25.4227 24.1637 31.2388 16.9892 31.2388C9.95606 31.2388 4.22832 25.6496 4.00538 18.6706C4.60751 24.8008 9.7773 29.5904 16.0657 29.5904C22.7589 29.5904 28.1847 24.1645 28.1847 17.4714C28.1847 10.7783 22.7589 5.35245 16.0657 5.35245C15.7588 5.35245 15.4545 5.36386 15.1533 5.38628C15.7531 5.30144 16.366 5.25756 16.9892 5.25756ZM27.4021 17.4714C27.4021 11.2105 22.3266 6.13508 16.0657 6.13508C15.4942 6.13508 14.9326 6.17737 14.3838 6.25899C14.6343 6.24105 14.8872 6.23191 15.1423 6.23191C20.9212 6.23191 25.606 10.9167 25.606 16.6956C25.606 22.4746 20.9212 27.1593 15.1423 27.1593C9.72709 27.1593 5.27269 23.0458 4.73336 17.773C4.89325 23.8945 9.90573 28.8078 16.0657 28.8078C22.3266 28.8078 27.4021 23.7323 27.4021 17.4714ZM15.1423 7.01455C20.489 7.01455 24.8233 11.3489 24.8233 16.6956C24.8233 22.0424 20.489 26.3767 15.1423 26.3767C9.8636 26.3767 5.57168 22.152 5.46329 16.8993C5.95092 21.3032 9.68487 24.7283 14.2188 24.7283C19.0841 24.7283 23.0282 20.7842 23.0282 15.9189C23.0282 11.0536 19.0841 7.10944 14.2188 7.10944C14.0327 7.10944 13.848 7.1152 13.6648 7.12657C14.1465 7.0528 14.6399 7.01455 15.1423 7.01455ZM22.2456 15.9189C22.2456 11.4858 18.6519 7.89207 14.2188 7.89207C13.7736 7.89207 13.3369 7.92831 12.9114 7.998C13.0382 7.99132 13.1658 7.98794 13.2943 7.98794C17.2459 7.98794 20.4494 11.1914 20.4494 15.1431C20.4494 19.0948 17.2459 22.2983 13.2943 22.2983C9.64035 22.2983 6.62612 19.5593 6.19264 16.0225C6.24814 20.4079 9.82032 23.9457 14.2188 23.9457C18.6519 23.9457 22.2456 20.352 22.2456 15.9189ZM13.2943 8.77056C16.8137 8.77056 19.6668 11.6236 19.6668 15.1431C19.6668 18.6626 16.8137 21.5156 13.2943 21.5156C9.77483 21.5156 6.92175 18.6626 6.92175 15.1431C6.92175 15.1347 6.92177 15.1262 6.9218 15.1178C7.28822 17.7998 9.58818 19.8663 12.3708 19.8663C15.4083 19.8663 17.8707 17.4039 17.8707 14.3664C17.8707 11.3288 15.4083 8.86645 12.3708 8.86645C12.3021 8.86645 12.2337 8.86769 12.1656 8.87019C12.5319 8.80472 12.9091 8.77056 13.2943 8.77056ZM17.088 14.3664C17.088 11.7611 14.9761 9.64907 12.3708 9.64907C9.76552 9.64907 7.65352 11.7611 7.65352 14.3664C7.65352 16.9716 9.76552 19.0836 12.3708 19.0836C14.9761 19.0836 17.088 16.9716 17.088 14.3664Z" fill="#18A7B9"/>
</g>
<defs>
<clipPath id="clip0_41_217">
<rect width="169" height="42" fill="white"/>
</clipPath>
</defs>
</svg>
