<svg width="168" height="42" viewBox="0 0 168 42" fill="none" xmlns="http://www.w3.org/2000/svg">
<g clip-path="url(#clip0_41_201)">
<path d="M49.2773 29.4525H61.2293V25.8525H53.5253V12.2925H49.2773V29.4525Z" fill="#18A7B9"/>
<path d="M68.3108 27.0524C66.6068 27.0524 65.7188 25.5644 65.7188 23.3324C65.7188 21.1004 66.6068 19.5884 68.3108 19.5884C70.0148 19.5884 70.9268 21.1004 70.9268 23.3324C70.9268 25.5644 70.0148 27.0524 68.3108 27.0524ZM68.3348 29.8364C72.2948 29.8364 74.8868 27.0284 74.8868 23.3324C74.8868 19.6364 72.2948 16.8284 68.3348 16.8284C64.3988 16.8284 61.7588 19.6364 61.7588 23.3324C61.7588 27.0284 64.3988 29.8364 68.3348 29.8364Z" fill="#18A7B9"/>
<path d="M81.7411 33.7004C83.5651 33.7004 85.1731 33.2924 86.2531 32.3324C87.2371 31.4444 87.8851 30.1004 87.8851 28.2524V17.1644H84.1411V18.4844H84.0931C83.3731 17.4524 82.2691 16.8044 80.6371 16.8044C77.5891 16.8044 75.4771 19.3484 75.4771 22.9484C75.4771 26.7164 78.0451 28.7804 80.8051 28.7804C82.2931 28.7804 83.2291 28.1804 83.9491 27.3644H84.0451V28.5884C84.0451 30.0764 83.3491 30.9404 81.6931 30.9404C80.3971 30.9404 79.7491 30.3884 79.5331 29.7404H75.7411C76.1251 32.3084 78.3571 33.7004 81.7411 33.7004ZM81.7171 25.8764C80.2531 25.8764 79.2931 24.6764 79.2931 22.8284C79.2931 20.9564 80.2531 19.7564 81.7171 19.7564C83.3491 19.7564 84.2131 21.1484 84.2131 22.8044C84.2131 24.5324 83.4211 25.8764 81.7171 25.8764Z" fill="#18A7B9"/>
<path d="M95.5837 27.0524C93.8797 27.0524 92.9917 25.5644 92.9917 23.3324C92.9917 21.1004 93.8797 19.5884 95.5837 19.5884C97.2877 19.5884 98.1997 21.1004 98.1997 23.3324C98.1997 25.5644 97.2877 27.0524 95.5837 27.0524ZM95.6077 29.8364C99.5677 29.8364 102.159 27.0284 102.159 23.3324C102.159 19.6364 99.5677 16.8284 95.6077 16.8284C91.6717 16.8284 89.0317 19.6364 89.0317 23.3324C89.0317 27.0284 91.6717 29.8364 95.6077 29.8364Z" fill="#18A7B9"/>
<path d="M103.302 29.4525H107.214V17.1645H103.302V29.4525ZM103.302 15.4605H107.214V12.2925H103.302V15.4605Z" fill="#18A7B9"/>
<path d="M108.911 33.5084H112.823V28.1804H112.871C113.639 29.2124 114.767 29.8364 116.351 29.8364C119.567 29.8364 121.703 27.2924 121.703 23.3084C121.703 19.6124 119.711 16.8044 116.447 16.8044C114.767 16.8044 113.567 17.5484 112.727 18.6524H112.655V17.1644H108.911V33.5084ZM115.343 26.8124C113.663 26.8124 112.703 25.4444 112.703 23.4524C112.703 21.4604 113.567 19.9484 115.271 19.9484C116.951 19.9484 117.743 21.3404 117.743 23.4524C117.743 25.5404 116.831 26.8124 115.343 26.8124Z" fill="#18A7B9"/>
<path d="M128.072 29.8364C131.288 29.8364 133.664 28.4444 133.664 25.7564C133.664 22.6124 131.12 22.0604 128.96 21.7004C127.4 21.4124 126.008 21.2924 126.008 20.4284C126.008 19.6604 126.752 19.3004 127.712 19.3004C128.792 19.3004 129.536 19.6364 129.68 20.7404H133.28C133.088 18.3164 131.216 16.8044 127.736 16.8044C124.832 16.8044 122.432 18.1484 122.432 20.7404C122.432 23.6204 124.712 24.1964 126.848 24.5564C128.48 24.8444 129.968 24.9644 129.968 26.0684C129.968 26.8604 129.224 27.2924 128.048 27.2924C126.752 27.2924 125.936 26.6924 125.792 25.4684H122.096C122.216 28.1804 124.472 29.8364 128.072 29.8364Z" fill="#18A7B9"/>
<path d="M138.978 29.8123C140.682 29.8123 141.762 29.1403 142.65 27.9403H142.722V29.4523H146.466V17.1643H142.554V24.0283C142.554 25.4923 141.738 26.5003 140.394 26.5003C139.146 26.5003 138.546 25.7563 138.546 24.4123V17.1643H134.658V25.2283C134.658 27.9643 136.146 29.8123 138.978 29.8123Z" fill="#18A7B9"/>
<path d="M148.168 29.4524H152.08V22.5644C152.08 21.1004 152.8 20.0684 154.024 20.0684C155.2 20.0684 155.752 20.8364 155.752 22.1564V29.4524H159.664V22.5644C159.664 21.1004 160.36 20.0684 161.608 20.0684C162.784 20.0684 163.336 20.8364 163.336 22.1564V29.4524H167.248V21.4604C167.248 18.7004 165.856 16.8044 163.072 16.8044C161.488 16.8044 160.168 17.4764 159.208 18.9644H159.16C158.536 17.6444 157.312 16.8044 155.704 16.8044C153.928 16.8044 152.752 17.6444 151.984 18.9164H151.912V17.1644H148.168V29.4524Z" fill="#18A7B9"/>
<path d="M25.4099 2.47695L21.4769 1.4231L18.1625 13.7927L15.1702 2.62533L11.2371 3.67919L14.4701 15.7447L6.41746 7.69207L3.53827 10.5713L12.371 19.4041L1.37124 16.4567L0.317383 20.3897L12.336 23.6101C12.1984 23.0166 12.1256 22.3982 12.1256 21.7628C12.1256 17.2652 15.7716 13.6192 20.2692 13.6192C24.7668 13.6192 28.4128 17.2652 28.4128 21.7628C28.4128 22.3941 28.3409 23.0087 28.205 23.5987L39.1277 26.5254L40.1815 22.5924L28.1151 19.3592L39.1156 16.4116L38.0617 12.4786L25.9958 15.7116L34.0484 7.65901L31.1692 4.77982L22.459 13.4901L25.4099 2.47695Z" fill="#18A7B9"/>
<path d="M28.1944 23.6443C27.8572 25.0699 27.1453 26.3506 26.1685 27.3767L34.0815 35.2898L36.9607 32.4106L28.1944 23.6443Z" fill="#18A7B9"/>
<path d="M26.0886 27.4597C25.1 28.4694 23.8507 29.2229 22.4497 29.6112L25.3291 40.3572L29.2621 39.3033L26.0886 27.4597Z" fill="#18A7B9"/>
<path d="M22.3028 29.6503C21.6528 29.8174 20.9715 29.9062 20.2694 29.9062C19.5172 29.9062 18.7888 29.8042 18.0973 29.6133L15.2153 40.3691L19.1483 41.4229L22.3028 29.6503Z" fill="#18A7B9"/>
<path d="M17.9583 29.5737C16.5787 29.1661 15.3516 28.403 14.3832 27.3904L6.45068 35.3229L9.32987 38.2021L17.9583 29.5737Z" fill="#18A7B9"/>
<path d="M14.3168 27.3202C13.365 26.3012 12.6717 25.0376 12.3417 23.634L1.3833 26.5703L2.43715 30.5033L14.3168 27.3202Z" fill="#18A7B9"/>
</g>
<defs>
<clipPath id="clip0_41_201">
<rect width="168" height="41" fill="white" transform="translate(0 0.5)"/>
</clipPath>
</defs>
</svg>
