<svg width="170" height="42" viewBox="0 0 170 42" fill="none" xmlns="http://www.w3.org/2000/svg">
<g clip-path="url(#clip0_41_179)">
<path d="M51.2773 29.8231H63.2293V26.2231H55.5253V12.6631H51.2773V29.8231Z" fill="#18A7B9"/>
<path d="M70.3108 27.4232C68.6068 27.4232 67.7188 25.9352 67.7188 23.7032C67.7188 21.4712 68.6068 19.9592 70.3108 19.9592C72.0148 19.9592 72.9268 21.4712 72.9268 23.7032C72.9268 25.9352 72.0148 27.4232 70.3108 27.4232ZM70.3348 30.2072C74.2948 30.2072 76.8868 27.3992 76.8868 23.7032C76.8868 20.0072 74.2948 17.1992 70.3348 17.1992C66.3988 17.1992 63.7588 20.0072 63.7588 23.7032C63.7588 27.3992 66.3988 30.2072 70.3348 30.2072Z" fill="#18A7B9"/>
<path d="M83.7411 34.0713C85.5651 34.0713 87.1731 33.6633 88.2531 32.7033C89.2371 31.8153 89.8851 30.4713 89.8851 28.6233V17.5353H86.1411V18.8553H86.0931C85.3731 17.8233 84.2691 17.1753 82.6371 17.1753C79.5891 17.1753 77.4771 19.7193 77.4771 23.3193C77.4771 27.0873 80.0451 29.1513 82.8051 29.1513C84.2931 29.1513 85.2291 28.5513 85.9491 27.7353H86.0451V28.9593C86.0451 30.4473 85.3491 31.3113 83.6931 31.3113C82.3971 31.3113 81.7491 30.7593 81.5331 30.1113H77.7411C78.1251 32.6793 80.3571 34.0713 83.7411 34.0713ZM83.7171 26.2473C82.2531 26.2473 81.2931 25.0473 81.2931 23.1993C81.2931 21.3273 82.2531 20.1273 83.7171 20.1273C85.3491 20.1273 86.2131 21.5193 86.2131 23.1753C86.2131 24.9033 85.4211 26.2473 83.7171 26.2473Z" fill="#18A7B9"/>
<path d="M97.5832 27.4232C95.8792 27.4232 94.9912 25.9352 94.9912 23.7032C94.9912 21.4712 95.8792 19.9592 97.5832 19.9592C99.2872 19.9592 100.199 21.4712 100.199 23.7032C100.199 25.9352 99.2872 27.4232 97.5832 27.4232ZM97.6072 30.2072C101.567 30.2072 104.159 27.3992 104.159 23.7032C104.159 20.0072 101.567 17.1992 97.6072 17.1992C93.6712 17.1992 91.0312 20.0072 91.0312 23.7032C91.0312 27.3992 93.6712 30.2072 97.6072 30.2072Z" fill="#18A7B9"/>
<path d="M105.302 29.8231H109.214V17.5351H105.302V29.8231ZM105.302 15.8311H109.214V12.6631H105.302V15.8311Z" fill="#18A7B9"/>
<path d="M110.911 33.8793H114.823V28.5513H114.871C115.639 29.5833 116.767 30.2073 118.351 30.2073C121.567 30.2073 123.703 27.6633 123.703 23.6793C123.703 19.9833 121.711 17.1753 118.447 17.1753C116.767 17.1753 115.567 17.9193 114.727 19.0233H114.655V17.5353H110.911V33.8793ZM117.343 27.1833C115.663 27.1833 114.703 25.8153 114.703 23.8233C114.703 21.8313 115.567 20.3193 117.271 20.3193C118.951 20.3193 119.743 21.7113 119.743 23.8233C119.743 25.9113 118.831 27.1833 117.343 27.1833Z" fill="#18A7B9"/>
<path d="M130.072 30.2073C133.288 30.2073 135.664 28.8153 135.664 26.1273C135.664 22.9833 133.12 22.4313 130.96 22.0713C129.4 21.7833 128.008 21.6633 128.008 20.7993C128.008 20.0313 128.752 19.6713 129.712 19.6713C130.792 19.6713 131.536 20.0073 131.68 21.1113H135.28C135.088 18.6873 133.216 17.1753 129.736 17.1753C126.832 17.1753 124.432 18.5193 124.432 21.1113C124.432 23.9913 126.712 24.5673 128.848 24.9273C130.48 25.2153 131.968 25.3353 131.968 26.4393C131.968 27.2313 131.224 27.6633 130.048 27.6633C128.752 27.6633 127.936 27.0633 127.792 25.8393H124.096C124.216 28.5513 126.472 30.2073 130.072 30.2073Z" fill="#18A7B9"/>
<path d="M140.978 30.1832C142.682 30.1832 143.762 29.5112 144.65 28.3112H144.722V29.8232H148.466V17.5352H144.554V24.3992C144.554 25.8632 143.738 26.8712 142.394 26.8712C141.146 26.8712 140.546 26.1272 140.546 24.7832V17.5352H136.658V25.5992C136.658 28.3352 138.146 30.1832 140.978 30.1832Z" fill="#18A7B9"/>
<path d="M150.168 29.8233H154.08V22.9353C154.08 21.4713 154.8 20.4393 156.024 20.4393C157.2 20.4393 157.752 21.2073 157.752 22.5273V29.8233H161.664V22.9353C161.664 21.4713 162.36 20.4393 163.608 20.4393C164.784 20.4393 165.336 21.2073 165.336 22.5273V29.8233H169.248V21.8313C169.248 19.0713 167.856 17.1753 165.072 17.1753C163.488 17.1753 162.168 17.8473 161.208 19.3353H161.16C160.536 18.0153 159.312 17.1753 157.704 17.1753C155.928 17.1753 154.752 18.0153 153.984 19.2873H153.912V17.5353H150.168V29.8233Z" fill="#18A7B9"/>
<path fill-rule="evenodd" clip-rule="evenodd" d="M20.1015 40.8232C31.1473 40.8232 40.1015 31.8689 40.1015 20.8232C40.1015 9.77754 31.1473 0.823242 20.1015 0.823242C9.05585 0.823242 0.101562 9.77754 0.101562 20.8232C0.101562 31.8689 9.05585 40.8232 20.1015 40.8232ZM23.1885 16.2758C24.8933 14.5709 24.8933 11.8068 23.1885 10.1019C21.4836 8.39702 18.7195 8.39702 17.0146 10.1019C15.3098 11.8068 15.3098 14.5709 17.0146 16.2758L20.1015 19.3627L23.1885 16.2758ZM24.649 23.9102C26.3539 25.6151 29.118 25.6151 30.8229 23.9102C32.5277 22.2053 32.5277 19.4412 30.8229 17.7363C29.118 16.0315 26.3539 16.0315 24.649 17.7363L21.5621 20.8233L24.649 23.9102ZM23.1885 31.5446C24.8933 29.8397 24.8933 27.0756 23.1885 25.3707L20.1015 22.2838L17.0146 25.3707C15.3098 27.0756 15.3098 29.8397 17.0146 31.5446C18.7195 33.2495 21.4836 33.2495 23.1885 31.5446ZM9.38019 23.9102C7.67535 22.2053 7.67535 19.4412 9.38019 17.7363C11.0851 16.0315 13.8492 16.0315 15.5541 17.7363L18.641 20.8233L15.5541 23.9102C13.8492 25.6151 11.0851 25.6151 9.38019 23.9102Z" fill="#18A7B9"/>
</g>
<defs>
<clipPath id="clip0_41_179">
<rect width="170" height="41" fill="white" transform="translate(0 0.5)"/>
</clipPath>
</defs>
</svg>
